<?xml version="1.0" encoding="UTF-8"?><svg id="Layer_2" xmlns="http://www.w3.org/2000/svg" viewBox="0 0 142 45"><defs><style>.cls-1{fill:#717372;}.cls-2{fill:#fff;}.cls-3{fill:#7bc144;}</style></defs><g id="Layer_1-2"><g><rect class="cls-2" width="142" height="45" rx="11.15" ry="11.15"/><g><path class="cls-1" d="M45.81,13.44c-.01-1.03,0-2.07,.04-3.12,0-.19,.05-.43,.13-.72,.4-1.47,1.56-2.44,2.98-2.85,1.13-.33,2.3-.36,3.46-.26,.8,.07,1.59,.13,2.38,.18,.03,0,.05,.03,.05,.06h0l-.34,3.59s-.02,.03-.04,.03c-.85-.07-1.69-.16-2.57-.1-.66,.04-1.24,.27-1.53,.88-.08,.18-.13,.46-.15,.84-.02,.5-.02,1,0,1.49,0,.03,.03,.05,.06,.05h3.47s.03,.01,.03,.03v3.68s-.02,.04-.04,.04h-3.47s-.06,.03-.06,.06v14.39s-.01,.03-.03,.03h-4.29s-.07-.02-.07-.07v-14.34s-.03-.07-.07-.07h-2.82s-.06-.03-.06-.06v-3.65s.02-.05,.05-.05h2.83s.06-.02,.06-.06Z"/><path class="cls-1" d="M112.8,31.78c-1.56-.6-2.26-1.95-2.26-3.58,0-7,0-14,0-21,0-.02,.01-.03,.03-.03h4.32s.03,.01,.03,.03c0,6.49,0,12.99,0,19.49,0,1.84,1.37,1.63,2.67,1.49,.02,0,.04,0,.04,.03l.33,3.58s0,.03-.03,.04c-.3,.07-.54,.11-.72,.12-.89,.05-1.78,.09-2.67,.14-.54,.03-1.13-.08-1.76-.32Z"/><path class="cls-1" d="M41.92,22.12c.2,4.63-2.36,8.91-7.14,9.82-2.77,.52-5.26-.06-7.46-1.74-.89-.68-1.64-1.65-2.15-2.61-.79-1.5-1.18-3.14-1.18-4.92,0-1.1,.13-2.12,.37-3.04,.26-.97,.7-1.91,1.32-2.82,1.39-2.02,3.32-3.21,5.79-3.57,1.35-.2,2.64-.14,3.9,.18,4.07,1.03,6.36,4.67,6.53,8.71Zm-10.43-4.72c-1.49,.48-2.38,1.72-2.75,3.22-.23,.94-.29,1.89-.18,2.85,.07,.58,.13,.97,.18,1.17,.29,1.21,1.03,2.29,2.11,2.89,1.28,.72,3.25,.66,4.47-.13,1.77-1.15,2.23-3.47,2.1-5.45-.09-1.35-.55-2.8-1.58-3.73-.8-.72-1.76-1.07-2.86-1.05-.57,.01-1.06,.08-1.48,.22Z"/><path class="cls-1" d="M103.35,29.95c-.45,.38-.93,.86-1.36,1.15-.48,.32-.99,.56-1.53,.72-2.22,.64-4.56,.23-6.37-1.23-1.2-.97-1.81-2.29-1.96-3.85-.24-2.45,1.41-4.58,3.7-5.24,.31-.09,.74-.18,1.29-.27,.85-.14,1.7-.27,2.54-.41,.94-.14,2-.26,2.99-.42,.03,0,.06-.03,.06-.07,.06-.51,0-1.02-.14-1.52-.63-2.08-3.26-2.1-4.98-1.7-1.05,.25-2.05,.6-3.01,1.08-.1,.05-.21,.09-.31,.11-.02,0-.04,0-.05-.02l-1.64-3.21s0-.04,.01-.05c3.2-1.74,7.19-2.47,10.74-1.42,1.95,.58,3.4,2.28,3.73,4.27,.05,.29,.07,.71,.08,1.28,.02,3.55,.02,6.15,.01,7.78,0,1.1,.6,1.47,1.45,2,.03,.02,.04,.06,.02,.09h0c-.64,.98-1.26,1.97-1.87,2.97-.03,.05-.09,.07-.18,.06-1.14-.12-2.05-.63-2.74-1.54-.14-.19-.28-.38-.42-.57-.01-.02-.03-.02-.05,0Zm-2.65-1.37c1.27-.38,1.98-1.43,2.01-2.75,.02-.75,.03-1.51,.03-2.26,0-.02-.01-.03-.03-.03-1.29,.21-2.58,.43-3.86,.67-.74,.13-1.47,.46-1.85,1.15-.63,1.13,.04,2.61,1.15,3.11,.77,.34,1.77,.36,2.56,.12Z"/><path class="cls-1" d="M67.33,29.87c-.27,.27-.57,.6-.81,.81-.83,.75-1.79,1.19-2.86,1.34-2.41,.33-4.49-.29-6.24-1.86-1.15-1.03-1.96-2.32-2.44-3.88-.07-.23-.15-.56-.24-.98-.47-2.17-.39-4.31,.29-6.43,.33-1.03,.82-2,1.49-2.85,1.65-2.09,3.84-3.04,6.56-2.86,1.28,.08,2.43,.56,3.41,1.38,.27,.23,.56,.56,.84,.83,.02,.02,.03,.02,.03-.01v-1.82s.01-.03,.03-.03h4.33s.03,0,.03,.03l-.02,24.99s0,.03-.03,.03h-4.31s-.03-.02-.03-.04h0v-8.64s-.02-.04-.04-.02Zm-.44-11.08c-1.01-1.47-3.01-1.87-4.65-1.47-1.44,.34-2.31,1.35-2.8,2.69-.68,1.86-.64,3.7,.11,5.53,.18,.45,.4,.82,.64,1.11,1.04,1.24,2.81,1.63,4.35,1.29,.46-.1,.86-.25,1.2-.45,.99-.57,1.7-1.67,1.73-2.88,.03-1.32,.03-2.65,0-3.97-.01-.67-.21-1.28-.59-1.84Z"/><path class="cls-1" d="M85.42,29.94s-.01-.02-.02-.02c0,0-.01,0-.02,0-.98,.95-2,1.74-3.37,2.02-2.14,.44-4.19,.09-5.87-1.35-1.35-1.16-1.94-2.91-1.94-4.64,0-4.13,0-8.27,0-12.4,0-.02,.01-.03,.03-.03h4.34s.03,0,.03,.03c0,3.49,0,6.98,0,10.47,0,.63,.02,1.06,.06,1.28,.11,.71,.39,1.32,.84,1.84,.28,.32,.66,.55,1.16,.69,1.05,.29,2.21,.19,3.1-.44,1.36-.95,1.64-2.51,1.65-4.07,0-3.25,.01-6.5,.01-9.75,0-.02,.01-.03,.03-.03h4.3s.04,.01,.04,.04V31.7s-.02,.05-.05,.05h-4.29s-.03-.01-.03-.03v-1.78Z"/><rect class="cls-3" x="24" y="34.21" width="40.9" height="4.35" rx=".05" ry=".05"/><rect class="cls-3" x="74.22" y="34.21" width="43.78" height="4.35" rx=".04" ry=".04"/></g></g></g></svg>