<?xml version="1.0" encoding="UTF-8"?><svg id="Layer_2" xmlns="http://www.w3.org/2000/svg" viewBox="0 0 152.82 35.71"><defs><style>.cls-1{fill:#fff;}.cls-2{font-family:Poppins-SemiBold, Poppins;font-size:21.84px;}.cls-2,.cls-3{fill:#da0c0c;}</style></defs><g id="Layer_1-2"><g><rect class="cls-1" width="152.82" height="30.22" rx="3.67" ry="3.67"/><text class="cls-2" transform="translate(46.34 22.76)"><tspan x="0" y="0">INQUIRY</tspan></text><path class="cls-3" d="M24.33,3.62c-6.34,0-11.48,5.15-11.48,11.48,0,2.04,.56,3.94,1.49,5.6l-1.47,5.25c-.07,.27,.08,.54,.35,.62,.08,.02,.17,.02,.25,0l5.48-1.36c1.61,.86,3.44,1.37,5.39,1.37,6.34,0,11.48-5.15,11.48-11.48S30.67,3.62,24.33,3.62Zm0,1c5.8,0,10.48,4.69,10.48,10.48s-4.69,10.48-10.48,10.48c-1.86,0-3.6-.48-5.11-1.33-.11-.06-.24-.08-.36-.05l-4.8,1.19,1.29-4.59c.04-.13,.02-.27-.05-.39-.92-1.56-1.45-3.37-1.45-5.32,0-5.8,4.69-10.48,10.48-10.48Zm-4.17,4.49c-.32,0-.78,.12-1.15,.52-.23,.24-1.17,1.16-1.17,2.77s1.16,3.13,1.3,3.31h0s.18,.26,.43,.59c.26,.33,.61,.77,1.06,1.25,.9,.95,2.17,2.04,3.74,2.71,.72,.31,1.29,.49,1.73,.63,.8,.25,1.53,.21,2.08,.13,.41-.06,.86-.26,1.31-.54s.88-.63,1.08-1.17c.14-.38,.21-.74,.23-1.03,.01-.15,.01-.27,0-.39,0-.12,0-.21-.11-.39-.23-.38-.5-.39-.77-.53-.15-.08-.59-.29-1.02-.5-.44-.21-.81-.39-1.04-.47-.15-.05-.33-.13-.58-.1-.26,.03-.51,.22-.66,.44-.14,.21-.71,.88-.88,1.07,0,0,.01,0-.06-.03-.21-.11-.48-.2-.86-.4s-.87-.51-1.4-.97h0c-.79-.69-1.34-1.57-1.51-1.86,.01-.01,0,0,.02-.02h0c.18-.18,.34-.39,.47-.54,.19-.22,.27-.41,.36-.59,.18-.36,.08-.75-.02-.96h0s-.06-.13-.12-.29c-.07-.16-.16-.37-.25-.6-.19-.45-.4-.95-.52-1.25h0c-.15-.35-.34-.6-.6-.72-.26-.12-.49-.09-.5-.09h0c-.18,0-.39-.01-.59-.01Zm0,1c.19,0,.38,0,.54,0,.16,0,.15,0,.12,0-.03-.01,.01-.02,.1,.2,.12,.29,.33,.79,.52,1.24,.09,.22,.18,.44,.25,.6,.07,.17,.11,.26,.15,.35h0c.04,.09,.04,.03,.02,.06-.11,.21-.12,.26-.23,.38-.16,.19-.33,.4-.42,.48-.08,.08-.21,.19-.3,.42-.09,.23-.05,.55,.09,.78,.18,.31,.79,1.3,1.74,2.14,.6,.53,1.15,.87,1.59,1.11s.8,.37,.89,.41c.19,.09,.4,.17,.65,.14,.24-.03,.45-.18,.59-.33h0c.18-.2,.71-.81,.96-1.18,.01,0,0,0,.09,.03h0s.52,.23,.95,.44,.87,.42,1.01,.49c.2,.1,.3,.17,.33,.17,0,.04,0,.09,0,.16-.02,.2-.07,.48-.18,.78-.05,.15-.33,.45-.67,.66s-.77,.37-.92,.4c-.47,.07-1.02,.09-1.63-.1-.42-.13-.95-.3-1.63-.6-1.39-.59-2.56-1.6-3.41-2.48-.42-.44-.76-.86-1-1.17-.24-.31-.34-.47-.43-.59h0c-.15-.21-1.1-1.52-1.1-2.71,0-1.26,.58-1.75,.9-2.09,.17-.18,.35-.2,.42-.2Z"/></g></g></svg>